# xmcd
#
# Track frame offsets:
#	187
#	19287
#	39732
#	59912
#	78202
#	96060
#	113227
#	132145
#	154125
#	173575
#
# Disc length: 2563 seconds
#
# Revision: 1
# Processed by: cddbd v1.5PL3 Copyright (c) Steve Scherf et al.
# Submitted via: CDex 1.50Beta5
#
DISCID=7e0a010a
DTITLE=桑田佳祐 - Crystal Dew 桑田佳祐　作品集Ii
DYEAR=1900
DGENRE=Pop
TTITLE0=忘れられたBig Wave
TTITLE1=真夏の果実〜“稲村ジェーン”テーマ曲〜
TTITLE2=YOU
TTITLE3=愛する女性とのすれ違い
TTITLE4=逢いたくなった時に君はここにいない
TTITLE5=栞(しおり)のテーマ
TTITLE6=シャボン
TTITLE7=恋人も濡れる街角
TTITLE8=ミス・ブランニュー・デイ〜Miss Brand-New Day〜
TTITLE9=Bye Bye My Love 〜U Are The One〜
EXTD=
EXTT0=
EXTT1=
EXTT2=
EXTT3=
EXTT4=
EXTT5=
EXTT6=
EXTT7=
EXTT8=
EXTT9=
PLAYORDER=
